<?xml version="1.0" standalone="no"?>
<!DOCTYPE svg PUBLIC "-//W3C//DTD SVG 20010904//EN"
 "http://www.w3.org/TR/2001/REC-SVG-20010904/DTD/svg10.dtd">
<svg version="1.0" xmlns="http://www.w3.org/2000/svg"
 width="897.000000pt" height="371.000000pt" viewBox="0 0 897.000000 371.000000"
 preserveAspectRatio="xMidYMid meet">

<g transform="translate(0.000000,371.000000) scale(0.100000,-0.100000)"
fill="#000000" stroke="none">
<path d="M410 2498 c0 -494 -4 -520 -77 -534 -28 -6 -37 -2 -68 29 -19 19 -35
44 -35 56 0 12 -3 21 -8 21 -4 0 -52 -45 -106 -99 l-99 -99 33 -41 c108 -137
291 -173 467 -92 76 36 137 96 172 170 l26 56 0 475 0 475 -152 3 -153 3 0
-423z"/>
<path d="M1250 2559 c-71 -12 -164 -57 -217 -103 -84 -74 -143 -247 -127 -375
28 -226 183 -365 421 -379 155 -8 266 24 349 100 40 37 104 140 104 168 0 6
-49 10 -134 10 l-134 0 -30 -29 c-54 -54 -151 -63 -221 -20 -35 21 -61 71 -61
119 l0 30 296 0 297 0 -5 88 c-15 241 -161 383 -408 397 -41 2 -100 0 -130 -6z
m189 -201 c42 -22 94 -89 80 -103 -4 -3 -76 -4 -162 -3 l-156 3 19 43 c34 76
135 103 219 60z"/>
<path d="M2210 2557 c-165 -40 -250 -134 -250 -277 1 -139 57 -194 244 -235
82 -18 106 -34 106 -68 0 -32 -12 -46 -49 -57 -45 -13 -122 3 -199 41 -35 17
-65 29 -67 27 -1 -1 -24 -45 -49 -96 -36 -72 -44 -97 -36 -107 6 -8 50 -28 98
-45 193 -71 407 -44 514 65 51 51 71 99 76 177 9 148 -56 220 -238 263 -116
27 -147 57 -101 99 36 32 85 30 206 -9 20 -6 23 -1 113 176 1 3 -31 16 -71 28
-93 27 -223 35 -297 18z"/>
<path d="M3010 2557 c-165 -40 -250 -134 -250 -277 1 -139 57 -194 244 -235
82 -18 106 -34 106 -68 0 -32 -12 -46 -49 -57 -45 -13 -122 3 -199 41 -35 17
-65 29 -67 27 -1 -1 -24 -45 -49 -96 -36 -72 -44 -97 -36 -107 6 -8 50 -28 98
-45 193 -71 407 -44 514 65 51 51 71 99 76 177 9 148 -56 220 -238 263 -116
27 -147 57 -101 99 36 32 85 30 206 -9 20 -6 23 -1 113 176 1 3 -31 16 -71 28
-93 27 -223 35 -297 18z"/>
<path d="M3850 2559 c-71 -12 -164 -57 -217 -103 -84 -74 -143 -247 -127 -375
28 -226 183 -365 421 -379 155 -8 266 24 349 100 40 37 104 140 104 168 0 6
-49 10 -134 10 l-134 0 -30 -29 c-54 -54 -151 -63 -221 -20 -35 21 -61 71 -61
119 l0 30 296 0 297 0 -5 88 c-15 241 -161 383 -408 397 -41 2 -100 0 -130 -6z
m189 -201 c42 -22 94 -89 80 -103 -4 -3 -76 -4 -162 -3 l-156 3 19 43 c34 76
135 103 219 60z"/>
<path d="M7890 2560 c-182 -22 -333 -138 -385 -298 -13 -39 -16 -76 -13 -150
3 -86 8 -107 35 -163 98 -198 340 -292 589 -229 138 36 242 117 301 238 26 52
28 66 28 172 0 109 -2 119 -32 183 -85 178 -288 274 -523 247z m176 -270 c108
-67 111 -236 5 -307 -120 -81 -280 5 -281 150 0 112 86 193 193 183 27 -3 64
-15 83 -26z"/>
<path d="M6100 2545 c-25 -8 -64 -30 -87 -50 -23 -19 -44 -35 -47 -35 -3 0 -6
18 -6 40 l0 40 -140 0 -140 0 0 -605 0 -605 140 0 140 0 0 235 0 236 45 -31
c67 -46 120 -61 210 -62 175 0 309 96 376 271 31 80 31 212 1 301 -70 205
-294 326 -492 265z m120 -250 c54 -28 100 -103 100 -164 0 -91 -92 -181 -182
-181 -104 1 -204 115 -182 207 31 130 153 194 264 138z"/>
<path d="M7211 2533 c-26 -9 -67 -38 -98 -67 l-53 -52 0 63 0 63 -140 0 -140
0 0 -405 0 -405 139 0 139 0 4 218 c3 210 4 218 28 262 30 52 74 85 128 94 38
6 107 -3 145 -19 16 -7 17 3 17 129 l0 136 -62 -1 c-35 0 -83 -8 -107 -16z"/>
<path d="M5232 2043 c-99 -49 -129 -179 -62 -271 34 -47 83 -72 144 -72 61 0
104 19 143 63 73 84 49 222 -48 276 -45 26 -130 28 -177 4z"/>
</g>
</svg>
